<svg width="381" height="365" viewBox="0 0 381 365" fill="none" xmlns="http://www.w3.org/2000/svg">
<path d="M281 34C281 42.8366 273.837 50 265 50L116 50C107.163 50 100 42.8365 100 34V16C100 7.16344 107.163 -7.72516e-07 116 0L265 1.3026e-05C273.837 1.37985e-05 281 7.16346 281 16V34Z" fill="black"/>
<path d="M281 331C281 322.163 273.837 315 265 315H116C107.163 315 100 322.163 100 331V349C100 357.837 107.163 365 116 365H265C273.837 365 281 357.837 281 349V331Z" fill="black"/>
<path d="M100 84C100 92.8366 92.8366 100 84 100L56 100C47.1635 100 40 92.8365 40 84L40 56C40 47.1634 47.1635 40 56 40H84C92.8366 40 100 47.1634 100 56V84Z" fill="black"/>
<path d="M100 281C100 272.163 92.8366 265 84 265H56C47.1635 265 40 272.163 40 281L40 309C40 317.837 47.1635 325 56 325H84C92.8366 325 100 317.837 100 309V281Z" fill="black"/>
<path d="M281 84C281 92.8366 288.163 100 297 100L325 100C333.837 100 341 92.8365 341 84V56C341 47.1634 333.837 40 325 40H297C288.163 40 281 47.1634 281 56V84Z" fill="black"/>
<path d="M86 226C86 234.837 93.1635 242 102 242H123C131.837 242 139 234.837 139 226V137C139 128.163 131.837 121 123 121L102 121C93.1634 121 86 128.163 86 137L86 226Z" fill="black"/>
<path d="M183 226C183 234.837 190.163 242 199 242H220C228.837 242 236 234.837 236 226V137C236 128.163 228.837 121 220 121L199 121C190.163 121 183 128.163 183 137V226Z" fill="black"/>
<path d="M281 281C281 272.163 288.163 265 297 265H325C333.837 265 341 272.163 341 281V309C341 317.837 333.837 325 325 325H297C288.163 325 281 317.837 281 309V281Z" fill="black"/>
<path d="M50 249C50 257.837 42.8366 265 34 265H16C7.16345 265 -3.51144e-07 257.837 0 249L5.2851e-06 116C5.63625e-06 107.163 7.16345 100 16 100H34C42.8366 100 50 107.163 50 116L50 249Z" fill="black"/>
<path d="M331 249C331 257.837 338.163 265 347 265H365C373.837 265 381 257.837 381 249V116C381 107.163 373.837 100 365 100H347C338.163 100 331 107.163 331 116V249Z" fill="black"/>
<path d="M51.5001 40.5C86.0001 40.5 100.5 35.5 100.5 13.5L124.5 50C108 50 99.5001 47 99.5001 65.5C99.5001 84 67.0001 58.5 67.0001 58.5L51.5001 40.5Z" fill="black"/>
<path d="M51.5001 325C86.0001 325 100.5 330 100.5 352L124.5 315.5C108 315.5 99.5001 318.5 99.5001 300C99.5001 281.5 67.0001 307 67.0001 307L51.5001 325Z" fill="black"/>
<path d="M330 40.5C295.5 40.5 281 35.5 281 13.5L257 50C273.5 50 282 47 282 65.5C282 84 314.5 58.5 314.5 58.5L330 40.5Z" fill="black"/>
<path d="M330 325C295.5 325 281 330 281 352L257 315.5C273.5 315.5 282 318.5 282 300C282 281.5 314.5 307 314.5 307L330 325Z" fill="black"/>
<path d="M293 99.7313C327.5 99.7313 331.5 104.5 331.5 126.5L365.5 99.7313C349 99.7313 341 93.2313 341 74.7313C341 56.2313 308.5 81.7313 308.5 81.7313L293 99.7313Z" fill="black"/>
<path d="M293 265.769C327.5 265.769 331.5 261 331.5 239L365.5 265.769C349 265.769 341 272.269 341 290.769C341 309.269 308.5 283.769 308.5 283.769L293 265.769Z" fill="black"/>
<path d="M87.5001 99.7313C53.0001 99.7313 49.0001 104.5 49.0001 126.5L15.0001 99.7313C31.5001 99.7313 39.5001 93.2313 39.5001 74.7313C39.5001 56.2313 72.0001 81.7313 72.0001 81.7313L87.5001 99.7313Z" fill="black"/>
<path d="M87.5001 265.769C53.0001 265.769 49.0001 261 49.0001 239L15.0001 265.769C31.5001 265.769 39.5001 272.269 39.5001 290.769C39.5001 309.269 72.0001 283.769 72.0001 283.769L87.5001 265.769Z" fill="black"/>
</svg>
